<svg xmlns="http://www.w3.org/2000/svg" xmlns:xlink="http://www.w3.org/1999/xlink" width="566" zoomAndPan="magnify" viewBox="0 0 425.25 425.249985" height="566" preserveAspectRatio="xMidYMid meet" version="1.0"><defs><clipPath id="e2292ece51"><path d="M 0 0 L 423.878906 0 L 423.878906 423.878906 L 0 423.878906 Z M 0 0 " clip-rule="nonzero"/></clipPath></defs><g clip-path="url(#e2292ece51)"><path fill="#052977" d="M 74.765625 0 L 349.109375 0 C 390.402344 0 423.878906 33.472656 423.878906 74.765625 L 423.878906 349.109375 C 423.878906 390.402344 390.402344 423.878906 349.109375 423.878906 L 74.765625 423.878906 C 33.472656 423.878906 0 390.402344 0 349.109375 L 0 74.765625 C 0 33.472656 33.472656 0 74.765625 0 " fill-opacity="1" fill-rule="nonzero"/></g><path fill="#ffffff" d="M 353.492188 367.074219 C 338.628906 288.265625 323.59375 209.515625 308.792969 130.738281 C 307.40625 126.117188 308.199219 117.9375 301.410156 117.9375 C 284.960938 117.410156 268.511719 117.90625 252.0625 117.773438 C 250.152344 99.300781 257.5 77.097656 243.328125 62.019531 C 229.324219 47.175781 207.203125 53.871094 189.238281 52.355469 C 173.121094 50.175781 155.648438 59.972656 152.320312 76.566406 C 150.539062 90.191406 151.894531 104.011719 151.433594 117.707031 C 134.324219 117.96875 117.152344 117.339844 100.042969 118.035156 C 95.921875 120.082031 96.121094 125.125 95.527344 128.984375 C 87.351562 208.257812 78.976562 287.535156 70.738281 366.839844 C 69.386719 371.09375 70.871094 377.859375 76.570312 377.199219 C 166.886719 377.460938 257.238281 377.398438 347.558594 377.230469 C 353.261719 378.058594 355.46875 371.496094 353.492188 367.074219 Z M 163.625 82.769531 C 163.789062 72.804688 173.183594 64.164062 183.035156 64.492188 C 197.40625 64.820312 211.980469 63.5 226.253906 65.214844 C 247.710938 73.464844 237.65625 100.316406 239.964844 117.703125 C 214.484375 117.769531 189.007812 117.734375 163.558594 117.769531 C 163.691406 106.09375 163.261719 94.414062 163.625 82.769531 Z M 82.96875 365.09375 C 91.054688 289.007812 98.933594 212.894531 106.894531 136.8125 L 198.066406 250.648438 C 199.003906 251.820312 200.425781 252.5 201.921875 252.5 C 201.925781 252.5 201.933594 252.5 201.9375 252.5 C 203.445312 252.496094 204.867188 251.804688 205.804688 250.621094 L 294.40625 138.402344 C 290.238281 214.019531 285.984375 289.640625 281.730469 365.257812 C 215.476562 365.160156 149.222656 365.488281 82.96875 365.09375 Z M 293.828125 365.160156 C 297.453125 301.621094 300.78125 238.015625 304.601562 174.476562 C 316.898438 238.046875 328.832031 301.6875 340.832031 365.289062 C 325.175781 365.226562 309.484375 365.359375 293.828125 365.160156 Z M 293.828125 365.160156 " fill-opacity="1" fill-rule="nonzero"/></svg>